<mxfile host="Electron" modified="2024-04-27T08:10:31.564Z" agent="Mozilla/5.0 (Windows NT 10.0; Win64; x64) AppleWebKit/537.36 (KHTML, like Gecko) draw.io/24.2.5 Chrome/120.0.6099.109 Electron/28.1.0 Safari/537.36" etag="iH6l28ExvXeTk_tg6e3g" version="24.2.5" type="device">
  <diagram name="Page-1" id="fpUOnozSw0sFAfAjcg4Q">
    <mxGraphModel dx="3506" dy="557" grid="1" gridSize="10" guides="1" tooltips="1" connect="1" arrows="1" fold="1" page="1" pageScale="1" pageWidth="850" pageHeight="1100" math="0" shadow="0">
      <root>
        <mxCell id="0" />
        <mxCell id="1" parent="0" />
        <mxCell id="XSct5k5VQUa2GznqLbLM-2" style="edgeStyle=orthogonalEdgeStyle;rounded=0;orthogonalLoop=1;jettySize=auto;html=1;entryX=0.5;entryY=0;entryDx=0;entryDy=0;" parent="1" source="XSct5k5VQUa2GznqLbLM-1" target="XSct5k5VQUa2GznqLbLM-3" edge="1">
          <mxGeometry relative="1" as="geometry">
            <mxPoint x="500" y="280" as="targetPoint" />
          </mxGeometry>
        </mxCell>
        <mxCell id="XSct5k5VQUa2GznqLbLM-1" value="Input Manager" style="rounded=1;whiteSpace=wrap;html=1;" parent="1" vertex="1">
          <mxGeometry x="440" y="190" width="120" height="60" as="geometry" />
        </mxCell>
        <mxCell id="XSct5k5VQUa2GznqLbLM-5" value="" style="edgeStyle=orthogonalEdgeStyle;rounded=0;orthogonalLoop=1;jettySize=auto;html=1;" parent="1" source="XSct5k5VQUa2GznqLbLM-3" target="XSct5k5VQUa2GznqLbLM-4" edge="1">
          <mxGeometry relative="1" as="geometry" />
        </mxCell>
        <mxCell id="XSct5k5VQUa2GznqLbLM-3" value="Player Controller" style="rounded=1;whiteSpace=wrap;html=1;" parent="1" vertex="1">
          <mxGeometry x="440" y="290" width="120" height="60" as="geometry" />
        </mxCell>
        <mxCell id="XSct5k5VQUa2GznqLbLM-13" style="edgeStyle=orthogonalEdgeStyle;rounded=0;orthogonalLoop=1;jettySize=auto;html=1;entryX=0.5;entryY=0;entryDx=0;entryDy=0;" parent="1" source="XSct5k5VQUa2GznqLbLM-4" target="XSct5k5VQUa2GznqLbLM-8" edge="1">
          <mxGeometry relative="1" as="geometry" />
        </mxCell>
        <mxCell id="XSct5k5VQUa2GznqLbLM-4" value="BaseState" style="whiteSpace=wrap;html=1;rounded=1;" parent="1" vertex="1">
          <mxGeometry x="310" y="450" width="120" height="60" as="geometry" />
        </mxCell>
        <mxCell id="XSct5k5VQUa2GznqLbLM-32" style="edgeStyle=orthogonalEdgeStyle;rounded=0;orthogonalLoop=1;jettySize=auto;html=1;entryX=0.5;entryY=0;entryDx=0;entryDy=0;" parent="1" source="XSct5k5VQUa2GznqLbLM-7" target="XSct5k5VQUa2GznqLbLM-33" edge="1">
          <mxGeometry relative="1" as="geometry">
            <mxPoint x="640" y="820" as="targetPoint" />
          </mxGeometry>
        </mxCell>
        <mxCell id="XSct5k5VQUa2GznqLbLM-7" value="Move State" style="whiteSpace=wrap;html=1;rounded=1;" parent="1" vertex="1">
          <mxGeometry x="580" y="700" width="120" height="60" as="geometry" />
        </mxCell>
        <mxCell id="Volj_1E85MB9AknWKt4E-5" style="edgeStyle=orthogonalEdgeStyle;rounded=0;orthogonalLoop=1;jettySize=auto;html=1;entryX=0.5;entryY=0;entryDx=0;entryDy=0;" parent="1" source="XSct5k5VQUa2GznqLbLM-8" target="XSct5k5VQUa2GznqLbLM-11" edge="1">
          <mxGeometry relative="1" as="geometry">
            <Array as="points">
              <mxPoint x="370" y="650" />
              <mxPoint x="90" y="650" />
            </Array>
          </mxGeometry>
        </mxCell>
        <mxCell id="Volj_1E85MB9AknWKt4E-6" style="edgeStyle=orthogonalEdgeStyle;rounded=0;orthogonalLoop=1;jettySize=auto;html=1;entryX=0.5;entryY=0;entryDx=0;entryDy=0;" parent="1" source="XSct5k5VQUa2GznqLbLM-8" target="XSct5k5VQUa2GznqLbLM-12" edge="1">
          <mxGeometry relative="1" as="geometry">
            <Array as="points">
              <mxPoint x="370" y="650" />
              <mxPoint x="230" y="650" />
            </Array>
          </mxGeometry>
        </mxCell>
        <mxCell id="Volj_1E85MB9AknWKt4E-7" style="edgeStyle=orthogonalEdgeStyle;rounded=0;orthogonalLoop=1;jettySize=auto;html=1;entryX=0.5;entryY=0;entryDx=0;entryDy=0;" parent="1" source="XSct5k5VQUa2GznqLbLM-8" target="XSct5k5VQUa2GznqLbLM-10" edge="1">
          <mxGeometry relative="1" as="geometry">
            <Array as="points">
              <mxPoint x="370" y="680" />
              <mxPoint x="370" y="680" />
            </Array>
          </mxGeometry>
        </mxCell>
        <mxCell id="Volj_1E85MB9AknWKt4E-8" style="edgeStyle=orthogonalEdgeStyle;rounded=0;orthogonalLoop=1;jettySize=auto;html=1;entryX=0.5;entryY=0;entryDx=0;entryDy=0;" parent="1" source="XSct5k5VQUa2GznqLbLM-8" target="XSct5k5VQUa2GznqLbLM-9" edge="1">
          <mxGeometry relative="1" as="geometry">
            <Array as="points">
              <mxPoint x="370" y="650" />
              <mxPoint x="510" y="650" />
            </Array>
          </mxGeometry>
        </mxCell>
        <mxCell id="Volj_1E85MB9AknWKt4E-9" style="edgeStyle=orthogonalEdgeStyle;rounded=0;orthogonalLoop=1;jettySize=auto;html=1;entryX=0.5;entryY=0;entryDx=0;entryDy=0;" parent="1" source="XSct5k5VQUa2GznqLbLM-8" target="XSct5k5VQUa2GznqLbLM-71" edge="1">
          <mxGeometry relative="1" as="geometry">
            <Array as="points">
              <mxPoint x="370" y="650" />
              <mxPoint x="770" y="650" />
            </Array>
          </mxGeometry>
        </mxCell>
        <mxCell id="Volj_1E85MB9AknWKt4E-10" style="edgeStyle=orthogonalEdgeStyle;rounded=0;orthogonalLoop=1;jettySize=auto;html=1;entryX=0.5;entryY=0;entryDx=0;entryDy=0;" parent="1" source="XSct5k5VQUa2GznqLbLM-8" target="XSct5k5VQUa2GznqLbLM-7" edge="1">
          <mxGeometry relative="1" as="geometry">
            <Array as="points">
              <mxPoint x="370" y="650" />
              <mxPoint x="640" y="650" />
            </Array>
          </mxGeometry>
        </mxCell>
        <mxCell id="XSct5k5VQUa2GznqLbLM-8" value="Idle State" style="whiteSpace=wrap;html=1;rounded=1;" parent="1" vertex="1">
          <mxGeometry x="310" y="550" width="120" height="60" as="geometry" />
        </mxCell>
        <mxCell id="XSct5k5VQUa2GznqLbLM-25" style="edgeStyle=orthogonalEdgeStyle;rounded=0;orthogonalLoop=1;jettySize=auto;html=1;entryX=0.5;entryY=0;entryDx=0;entryDy=0;" parent="1" source="XSct5k5VQUa2GznqLbLM-9" target="XSct5k5VQUa2GznqLbLM-26" edge="1">
          <mxGeometry relative="1" as="geometry" />
        </mxCell>
        <mxCell id="XSct5k5VQUa2GznqLbLM-9" value="Turn State" style="whiteSpace=wrap;html=1;rounded=1;" parent="1" vertex="1">
          <mxGeometry x="450" y="700" width="120" height="60" as="geometry" />
        </mxCell>
        <mxCell id="XSct5k5VQUa2GznqLbLM-18" style="edgeStyle=orthogonalEdgeStyle;rounded=0;orthogonalLoop=1;jettySize=auto;html=1;" parent="1" source="XSct5k5VQUa2GznqLbLM-10" edge="1">
          <mxGeometry relative="1" as="geometry">
            <mxPoint x="370" y="820" as="targetPoint" />
          </mxGeometry>
        </mxCell>
        <mxCell id="XSct5k5VQUa2GznqLbLM-10" value="Death State" style="whiteSpace=wrap;html=1;rounded=1;" parent="1" vertex="1">
          <mxGeometry x="310" y="700" width="120" height="60" as="geometry" />
        </mxCell>
        <mxCell id="XSct5k5VQUa2GznqLbLM-11" value="Attack State" style="whiteSpace=wrap;html=1;rounded=1;" parent="1" vertex="1">
          <mxGeometry x="30" y="700" width="120" height="60" as="geometry" />
        </mxCell>
        <mxCell id="XSct5k5VQUa2GznqLbLM-12" value="Interact State&lt;br&gt;On Hold do nothing" style="whiteSpace=wrap;html=1;rounded=1;" parent="1" vertex="1">
          <mxGeometry x="170" y="700" width="120" height="60" as="geometry" />
        </mxCell>
        <mxCell id="XSct5k5VQUa2GznqLbLM-21" style="edgeStyle=orthogonalEdgeStyle;rounded=0;orthogonalLoop=1;jettySize=auto;html=1;entryX=0.5;entryY=0;entryDx=0;entryDy=0;" parent="1" source="XSct5k5VQUa2GznqLbLM-19" target="XSct5k5VQUa2GznqLbLM-20" edge="1">
          <mxGeometry relative="1" as="geometry" />
        </mxCell>
        <mxCell id="XSct5k5VQUa2GznqLbLM-19" value="Play Animation" style="whiteSpace=wrap;html=1;rounded=1;" parent="1" vertex="1">
          <mxGeometry x="310" y="820" width="120" height="60" as="geometry" />
        </mxCell>
        <mxCell id="XSct5k5VQUa2GznqLbLM-20" value="Call respawn" style="whiteSpace=wrap;html=1;rounded=1;" parent="1" vertex="1">
          <mxGeometry x="310" y="910" width="120" height="60" as="geometry" />
        </mxCell>
        <mxCell id="XSct5k5VQUa2GznqLbLM-23" value="Rotate Character based on input" style="whiteSpace=wrap;html=1;rounded=1;" parent="1" vertex="1">
          <mxGeometry x="450" y="910" width="120" height="60" as="geometry" />
        </mxCell>
        <mxCell id="XSct5k5VQUa2GznqLbLM-27" style="edgeStyle=orthogonalEdgeStyle;rounded=0;orthogonalLoop=1;jettySize=auto;html=1;entryX=0.5;entryY=0;entryDx=0;entryDy=0;" parent="1" source="XSct5k5VQUa2GznqLbLM-26" target="XSct5k5VQUa2GznqLbLM-23" edge="1">
          <mxGeometry relative="1" as="geometry" />
        </mxCell>
        <mxCell id="XSct5k5VQUa2GznqLbLM-26" value="Play Animation" style="whiteSpace=wrap;html=1;rounded=1;" parent="1" vertex="1">
          <mxGeometry x="450" y="820" width="120" height="60" as="geometry" />
        </mxCell>
        <mxCell id="XSct5k5VQUa2GznqLbLM-35" style="edgeStyle=orthogonalEdgeStyle;rounded=0;orthogonalLoop=1;jettySize=auto;html=1;" parent="1" source="XSct5k5VQUa2GznqLbLM-33" target="XSct5k5VQUa2GznqLbLM-34" edge="1">
          <mxGeometry relative="1" as="geometry" />
        </mxCell>
        <mxCell id="XSct5k5VQUa2GznqLbLM-33" value="Play Animation" style="whiteSpace=wrap;html=1;rounded=1;" parent="1" vertex="1">
          <mxGeometry x="580" y="820" width="120" height="60" as="geometry" />
        </mxCell>
        <mxCell id="XSct5k5VQUa2GznqLbLM-34" value="Move Character to next grid&lt;div&gt;(canMove?)&lt;/div&gt;" style="whiteSpace=wrap;html=1;rounded=1;" parent="1" vertex="1">
          <mxGeometry x="580" y="910" width="120" height="60" as="geometry" />
        </mxCell>
        <mxCell id="cFJ6EwEZcU4XQTctLiup-2" style="edgeStyle=orthogonalEdgeStyle;rounded=0;orthogonalLoop=1;jettySize=auto;html=1;entryX=0.5;entryY=0;entryDx=0;entryDy=0;" parent="1" source="cFJ6EwEZcU4XQTctLiup-1" target="xqMqaPBEPbHjZp_7vXyr-19" edge="1">
          <mxGeometry relative="1" as="geometry">
            <mxPoint x="-522" y="349.99999999999994" as="sourcePoint" />
            <Array as="points" />
          </mxGeometry>
        </mxCell>
        <mxCell id="k_e-ELGLgppn5nw8v2pl-16" style="edgeStyle=orthogonalEdgeStyle;rounded=0;orthogonalLoop=1;jettySize=auto;html=1;entryX=0.5;entryY=0;entryDx=0;entryDy=0;exitX=0.5;exitY=1;exitDx=0;exitDy=0;" parent="1" source="znZZMsB74qmJo8x0Kip--1" target="cFJ6EwEZcU4XQTctLiup-1" edge="1">
          <mxGeometry relative="1" as="geometry">
            <mxPoint x="-412" y="270" as="sourcePoint" />
          </mxGeometry>
        </mxCell>
        <mxCell id="XSct5k5VQUa2GznqLbLM-71" value="CheckTasks State" style="whiteSpace=wrap;html=1;rounded=1;" parent="1" vertex="1">
          <mxGeometry x="710" y="700" width="120" height="60" as="geometry" />
        </mxCell>
        <mxCell id="XSct5k5VQUa2GznqLbLM-72" style="edgeStyle=orthogonalEdgeStyle;rounded=0;orthogonalLoop=1;jettySize=auto;html=1;exitX=0.5;exitY=1;exitDx=0;exitDy=0;" parent="1" source="XSct5k5VQUa2GznqLbLM-12" edge="1">
          <mxGeometry relative="1" as="geometry">
            <mxPoint x="230" y="820" as="targetPoint" />
            <mxPoint x="380" y="770" as="sourcePoint" />
            <Array as="points">
              <mxPoint x="230" y="790" />
              <mxPoint x="231" y="790" />
              <mxPoint x="231" y="820" />
            </Array>
          </mxGeometry>
        </mxCell>
        <mxCell id="XSct5k5VQUa2GznqLbLM-73" value="Add Points" style="whiteSpace=wrap;html=1;rounded=1;" parent="1" vertex="1">
          <mxGeometry x="170" y="910" width="120" height="60" as="geometry" />
        </mxCell>
        <mxCell id="XSct5k5VQUa2GznqLbLM-75" style="edgeStyle=orthogonalEdgeStyle;rounded=0;orthogonalLoop=1;jettySize=auto;html=1;entryX=0.5;entryY=0;entryDx=0;entryDy=0;" parent="1" source="XSct5k5VQUa2GznqLbLM-74" target="XSct5k5VQUa2GznqLbLM-73" edge="1">
          <mxGeometry relative="1" as="geometry" />
        </mxCell>
        <mxCell id="XSct5k5VQUa2GznqLbLM-74" value="Play Animation" style="whiteSpace=wrap;html=1;rounded=1;" parent="1" vertex="1">
          <mxGeometry x="170" y="820" width="120" height="60" as="geometry" />
        </mxCell>
        <mxCell id="XSct5k5VQUa2GznqLbLM-76" value="Play Animation" style="whiteSpace=wrap;html=1;rounded=1;" parent="1" vertex="1">
          <mxGeometry x="30" y="820" width="120" height="60" as="geometry" />
        </mxCell>
        <mxCell id="XSct5k5VQUa2GznqLbLM-77" style="edgeStyle=orthogonalEdgeStyle;rounded=0;orthogonalLoop=1;jettySize=auto;html=1;exitX=0.5;exitY=1;exitDx=0;exitDy=0;entryX=0.5;entryY=0;entryDx=0;entryDy=0;" parent="1" source="XSct5k5VQUa2GznqLbLM-11" target="XSct5k5VQUa2GznqLbLM-76" edge="1">
          <mxGeometry relative="1" as="geometry">
            <mxPoint x="240" y="830" as="targetPoint" />
            <mxPoint x="240" y="770" as="sourcePoint" />
            <Array as="points">
              <mxPoint x="90" y="810" />
              <mxPoint x="90" y="810" />
            </Array>
          </mxGeometry>
        </mxCell>
        <mxCell id="xqMqaPBEPbHjZp_7vXyr-19" value="Roam" style="swimlane;whiteSpace=wrap;html=1;" parent="1" vertex="1">
          <mxGeometry x="-620" y="440" width="213" height="320" as="geometry" />
        </mxCell>
        <mxCell id="xqMqaPBEPbHjZp_7vXyr-21" style="edgeStyle=orthogonalEdgeStyle;rounded=0;orthogonalLoop=1;jettySize=auto;html=1;entryX=0.5;entryY=0;entryDx=0;entryDy=0;" parent="xqMqaPBEPbHjZp_7vXyr-19" source="T1XJ8mTRFxujSmtySTRM-1" target="xqMqaPBEPbHjZp_7vXyr-13" edge="1">
          <mxGeometry relative="1" as="geometry">
            <mxPoint x="113" y="60.00000000000006" as="sourcePoint" />
          </mxGeometry>
        </mxCell>
        <mxCell id="xqMqaPBEPbHjZp_7vXyr-13" value="pick random action&amp;nbsp;" style="whiteSpace=wrap;html=1;rounded=1;" parent="xqMqaPBEPbHjZp_7vXyr-19" vertex="1">
          <mxGeometry x="63" y="100.00000000000006" width="100" height="40" as="geometry" />
        </mxCell>
        <mxCell id="xqMqaPBEPbHjZp_7vXyr-16" value="" style="edgeStyle=orthogonalEdgeStyle;rounded=0;orthogonalLoop=1;jettySize=auto;html=1;" parent="xqMqaPBEPbHjZp_7vXyr-19" source="xqMqaPBEPbHjZp_7vXyr-13" target="xqMqaPBEPbHjZp_7vXyr-15" edge="1">
          <mxGeometry relative="1" as="geometry">
            <mxPoint x="113" y="140.00000000000006" as="sourcePoint" />
            <mxPoint x="113" y="220.00000000000006" as="targetPoint" />
          </mxGeometry>
        </mxCell>
        <mxCell id="xqMqaPBEPbHjZp_7vXyr-15" value="Execute action" style="whiteSpace=wrap;html=1;rounded=1;" parent="xqMqaPBEPbHjZp_7vXyr-19" vertex="1">
          <mxGeometry x="63" y="170.00000000000006" width="100" height="40" as="geometry" />
        </mxCell>
        <mxCell id="xqMqaPBEPbHjZp_7vXyr-18" value="" style="edgeStyle=orthogonalEdgeStyle;rounded=0;orthogonalLoop=1;jettySize=auto;html=1;" parent="xqMqaPBEPbHjZp_7vXyr-19" source="xqMqaPBEPbHjZp_7vXyr-15" target="xqMqaPBEPbHjZp_7vXyr-17" edge="1">
          <mxGeometry relative="1" as="geometry">
            <mxPoint x="113" y="220.00000000000006" as="sourcePoint" />
            <mxPoint x="113" y="330.00000000000006" as="targetPoint" />
          </mxGeometry>
        </mxCell>
        <mxCell id="T1XJ8mTRFxujSmtySTRM-5" style="edgeStyle=orthogonalEdgeStyle;rounded=0;orthogonalLoop=1;jettySize=auto;html=1;entryX=0;entryY=0.5;entryDx=0;entryDy=0;" parent="xqMqaPBEPbHjZp_7vXyr-19" source="xqMqaPBEPbHjZp_7vXyr-17" target="xqMqaPBEPbHjZp_7vXyr-13" edge="1">
          <mxGeometry relative="1" as="geometry">
            <Array as="points">
              <mxPoint x="20" y="270" />
              <mxPoint x="20" y="120" />
            </Array>
          </mxGeometry>
        </mxCell>
        <mxCell id="xqMqaPBEPbHjZp_7vXyr-17" value="Idle" style="whiteSpace=wrap;html=1;rounded=1;" parent="xqMqaPBEPbHjZp_7vXyr-19" vertex="1">
          <mxGeometry x="63" y="250.00000000000006" width="100" height="40" as="geometry" />
        </mxCell>
        <mxCell id="T1XJ8mTRFxujSmtySTRM-1" value="Start roam timer" style="whiteSpace=wrap;html=1;rounded=1;" parent="xqMqaPBEPbHjZp_7vXyr-19" vertex="1">
          <mxGeometry x="63" y="30.000000000000057" width="100" height="40" as="geometry" />
        </mxCell>
        <mxCell id="T1XJ8mTRFxujSmtySTRM-3" value="" style="edgeStyle=orthogonalEdgeStyle;rounded=0;orthogonalLoop=1;jettySize=auto;html=1;" parent="xqMqaPBEPbHjZp_7vXyr-19" source="T1XJ8mTRFxujSmtySTRM-1" target="xqMqaPBEPbHjZp_7vXyr-13" edge="1">
          <mxGeometry relative="1" as="geometry" />
        </mxCell>
        <mxCell id="T1XJ8mTRFxujSmtySTRM-7" value="Timer counting" style="text;strokeColor=none;fillColor=none;align=left;verticalAlign=middle;spacingLeft=4;spacingRight=4;overflow=hidden;points=[[0,0.5],[1,0.5]];portConstraint=eastwest;rotatable=0;whiteSpace=wrap;html=1;" parent="xqMqaPBEPbHjZp_7vXyr-19" vertex="1">
          <mxGeometry x="20" y="220" width="90" height="30" as="geometry" />
        </mxCell>
        <mxCell id="T1XJ8mTRFxujSmtySTRM-9" value="Timer up" style="text;strokeColor=none;fillColor=none;align=left;verticalAlign=middle;spacingLeft=4;spacingRight=4;overflow=hidden;points=[[0,0.5],[1,0.5]];portConstraint=eastwest;rotatable=0;whiteSpace=wrap;html=1;" parent="xqMqaPBEPbHjZp_7vXyr-19" vertex="1">
          <mxGeometry x="120" y="290.00000000000006" width="58" height="30" as="geometry" />
        </mxCell>
        <mxCell id="k_e-ELGLgppn5nw8v2pl-15" style="edgeStyle=orthogonalEdgeStyle;rounded=0;orthogonalLoop=1;jettySize=auto;html=1;entryX=0;entryY=0.5;entryDx=0;entryDy=0;" parent="1" source="xqMqaPBEPbHjZp_7vXyr-23" target="cFJ6EwEZcU4XQTctLiup-1" edge="1">
          <mxGeometry relative="1" as="geometry">
            <Array as="points">
              <mxPoint x="-507" y="890" />
              <mxPoint x="-647" y="890" />
              <mxPoint x="-647" y="350" />
            </Array>
          </mxGeometry>
        </mxCell>
        <mxCell id="xqMqaPBEPbHjZp_7vXyr-23" value="Timer&lt;br&gt;Done" style="whiteSpace=wrap;html=1;rounded=1;" parent="1" vertex="1">
          <mxGeometry x="-557" y="800" width="100" height="40" as="geometry" />
        </mxCell>
        <mxCell id="Volj_1E85MB9AknWKt4E-1" value="TaskManager" style="rounded=1;whiteSpace=wrap;html=1;" parent="1" vertex="1">
          <mxGeometry x="-1379.9399999999998" y="1230" width="120" height="60" as="geometry" />
        </mxCell>
        <mxCell id="Volj_1E85MB9AknWKt4E-4" style="edgeStyle=orthogonalEdgeStyle;rounded=0;orthogonalLoop=1;jettySize=auto;html=1;entryX=0.5;entryY=0;entryDx=0;entryDy=0;" parent="1" source="Volj_1E85MB9AknWKt4E-2" target="Volj_1E85MB9AknWKt4E-3" edge="1">
          <mxGeometry relative="1" as="geometry" />
        </mxCell>
        <mxCell id="Volj_1E85MB9AknWKt4E-2" value="Points" style="rounded=1;whiteSpace=wrap;html=1;" parent="1" vertex="1">
          <mxGeometry x="-2280" y="1345" width="120" height="60" as="geometry" />
        </mxCell>
        <mxCell id="znZZMsB74qmJo8x0Kip--5" value="" style="edgeStyle=orthogonalEdgeStyle;rounded=0;orthogonalLoop=1;jettySize=auto;html=1;" parent="1" source="Volj_1E85MB9AknWKt4E-3" target="znZZMsB74qmJo8x0Kip--4" edge="1">
          <mxGeometry relative="1" as="geometry">
            <Array as="points">
              <mxPoint x="-2320.06" y="1490" />
            </Array>
          </mxGeometry>
        </mxCell>
        <mxCell id="znZZMsB74qmJo8x0Kip--8" style="edgeStyle=orthogonalEdgeStyle;rounded=0;orthogonalLoop=1;jettySize=auto;html=1;entryX=0.5;entryY=0;entryDx=0;entryDy=0;" parent="1" source="Volj_1E85MB9AknWKt4E-3" target="znZZMsB74qmJo8x0Kip--7" edge="1">
          <mxGeometry relative="1" as="geometry">
            <Array as="points">
              <mxPoint x="-2120.06" y="1490" />
            </Array>
          </mxGeometry>
        </mxCell>
        <mxCell id="Volj_1E85MB9AknWKt4E-3" value="kill / Task" style="rhombus;whiteSpace=wrap;html=1;" parent="1" vertex="1">
          <mxGeometry x="-2260" y="1450" width="80" height="80" as="geometry" />
        </mxCell>
        <mxCell id="k_e-ELGLgppn5nw8v2pl-13" style="edgeStyle=orthogonalEdgeStyle;rounded=0;orthogonalLoop=1;jettySize=auto;html=1;entryX=0.5;entryY=0;entryDx=0;entryDy=0;" parent="1" source="Volj_1E85MB9AknWKt4E-11" target="cFJ6EwEZcU4XQTctLiup-5" edge="1">
          <mxGeometry relative="1" as="geometry" />
        </mxCell>
        <mxCell id="Volj_1E85MB9AknWKt4E-11" value="Do Task&amp;nbsp;" style="swimlane;whiteSpace=wrap;html=1;" parent="1" vertex="1">
          <mxGeometry x="-402" y="440" width="200" height="320" as="geometry" />
        </mxCell>
        <mxCell id="k_e-ELGLgppn5nw8v2pl-5" style="edgeStyle=orthogonalEdgeStyle;rounded=0;orthogonalLoop=1;jettySize=auto;html=1;entryX=0.5;entryY=0;entryDx=0;entryDy=0;" parent="Volj_1E85MB9AknWKt4E-11" source="k_e-ELGLgppn5nw8v2pl-1" target="k_e-ELGLgppn5nw8v2pl-4" edge="1">
          <mxGeometry relative="1" as="geometry" />
        </mxCell>
        <mxCell id="k_e-ELGLgppn5nw8v2pl-1" value="Path Find" style="whiteSpace=wrap;html=1;rounded=1;" parent="Volj_1E85MB9AknWKt4E-11" vertex="1">
          <mxGeometry x="50" y="100" width="100" height="40" as="geometry" />
        </mxCell>
        <mxCell id="k_e-ELGLgppn5nw8v2pl-3" style="edgeStyle=orthogonalEdgeStyle;rounded=0;orthogonalLoop=1;jettySize=auto;html=1;" parent="Volj_1E85MB9AknWKt4E-11" source="k_e-ELGLgppn5nw8v2pl-2" target="k_e-ELGLgppn5nw8v2pl-1" edge="1">
          <mxGeometry relative="1" as="geometry" />
        </mxCell>
        <mxCell id="k_e-ELGLgppn5nw8v2pl-2" value="Get task" style="whiteSpace=wrap;html=1;rounded=1;" parent="Volj_1E85MB9AknWKt4E-11" vertex="1">
          <mxGeometry x="50" y="40" width="100" height="40" as="geometry" />
        </mxCell>
        <mxCell id="k_e-ELGLgppn5nw8v2pl-6" style="edgeStyle=orthogonalEdgeStyle;rounded=0;orthogonalLoop=1;jettySize=auto;html=1;entryX=0;entryY=0.5;entryDx=0;entryDy=0;" parent="Volj_1E85MB9AknWKt4E-11" source="k_e-ELGLgppn5nw8v2pl-7" target="k_e-ELGLgppn5nw8v2pl-1" edge="1">
          <mxGeometry relative="1" as="geometry">
            <Array as="points">
              <mxPoint x="100" y="210" />
              <mxPoint x="30" y="210" />
              <mxPoint x="30" y="120" />
            </Array>
          </mxGeometry>
        </mxCell>
        <mxCell id="k_e-ELGLgppn5nw8v2pl-8" style="edgeStyle=orthogonalEdgeStyle;rounded=0;orthogonalLoop=1;jettySize=auto;html=1;entryX=0.5;entryY=0;entryDx=0;entryDy=0;" parent="Volj_1E85MB9AknWKt4E-11" source="k_e-ELGLgppn5nw8v2pl-4" target="k_e-ELGLgppn5nw8v2pl-7" edge="1">
          <mxGeometry relative="1" as="geometry" />
        </mxCell>
        <mxCell id="k_e-ELGLgppn5nw8v2pl-4" value="Move&lt;br&gt;&amp;nbsp;(Check Goal)" style="whiteSpace=wrap;html=1;rounded=1;" parent="Volj_1E85MB9AknWKt4E-11" vertex="1">
          <mxGeometry x="50" y="190" width="100" height="40" as="geometry" />
        </mxCell>
        <mxCell id="k_e-ELGLgppn5nw8v2pl-7" value="Interact" style="whiteSpace=wrap;html=1;rounded=1;" parent="Volj_1E85MB9AknWKt4E-11" vertex="1">
          <mxGeometry x="50" y="260" width="100" height="40" as="geometry" />
        </mxCell>
        <mxCell id="k_e-ELGLgppn5nw8v2pl-21" value="Not Reached" style="text;strokeColor=none;fillColor=none;align=left;verticalAlign=middle;spacingLeft=4;spacingRight=4;overflow=hidden;points=[[0,0.5],[1,0.5]];portConstraint=eastwest;rotatable=0;whiteSpace=wrap;html=1;" parent="Volj_1E85MB9AknWKt4E-11" vertex="1">
          <mxGeometry x="32" y="150" width="58" height="30" as="geometry" />
        </mxCell>
        <mxCell id="k_e-ELGLgppn5nw8v2pl-22" value="Reached" style="text;strokeColor=none;fillColor=none;align=left;verticalAlign=middle;spacingLeft=4;spacingRight=4;overflow=hidden;points=[[0,0.5],[1,0.5]];portConstraint=eastwest;rotatable=0;whiteSpace=wrap;html=1;" parent="Volj_1E85MB9AknWKt4E-11" vertex="1">
          <mxGeometry x="102" y="230" width="58" height="30" as="geometry" />
        </mxCell>
        <mxCell id="ABTgJKOR7nkzbQ6pQ3x9-3" value="Get Tasks" style="shape=parallelogram;perimeter=parallelogramPerimeter;whiteSpace=wrap;html=1;fixedSize=1;" parent="1" vertex="1">
          <mxGeometry x="-1379.9399999999998" y="1490" width="120" height="60" as="geometry" />
        </mxCell>
        <mxCell id="ABTgJKOR7nkzbQ6pQ3x9-9" value="" style="edgeStyle=orthogonalEdgeStyle;rounded=0;orthogonalLoop=1;jettySize=auto;html=1;" parent="1" source="ABTgJKOR7nkzbQ6pQ3x9-6" target="ABTgJKOR7nkzbQ6pQ3x9-8" edge="1">
          <mxGeometry relative="1" as="geometry" />
        </mxCell>
        <mxCell id="cFJ6EwEZcU4XQTctLiup-38" style="edgeStyle=orthogonalEdgeStyle;rounded=0;orthogonalLoop=1;jettySize=auto;html=1;" parent="1" source="ABTgJKOR7nkzbQ6pQ3x9-6" target="cFJ6EwEZcU4XQTctLiup-36" edge="1">
          <mxGeometry relative="1" as="geometry" />
        </mxCell>
        <mxCell id="ABTgJKOR7nkzbQ6pQ3x9-6" value="UI shows&lt;br&gt;&amp;nbsp;5 tasks" style="shape=parallelogram;perimeter=parallelogramPerimeter;whiteSpace=wrap;html=1;fixedSize=1;" parent="1" vertex="1">
          <mxGeometry x="-1379.9399999999998" y="1585" width="120" height="60" as="geometry" />
        </mxCell>
        <mxCell id="cFJ6EwEZcU4XQTctLiup-12" value="" style="edgeStyle=orthogonalEdgeStyle;rounded=0;orthogonalLoop=1;jettySize=auto;html=1;" parent="1" source="ABTgJKOR7nkzbQ6pQ3x9-8" target="cFJ6EwEZcU4XQTctLiup-11" edge="1">
          <mxGeometry relative="1" as="geometry" />
        </mxCell>
        <mxCell id="ABTgJKOR7nkzbQ6pQ3x9-8" value="Complete&amp;nbsp;&lt;br&gt;&amp;nbsp;task ?" style="rhombus;whiteSpace=wrap;html=1;" parent="1" vertex="1">
          <mxGeometry x="-1359.9399999999998" y="1695" width="80" height="80" as="geometry" />
        </mxCell>
        <mxCell id="cFJ6EwEZcU4XQTctLiup-4" style="edgeStyle=orthogonalEdgeStyle;rounded=0;orthogonalLoop=1;jettySize=auto;html=1;entryX=0.5;entryY=0;entryDx=0;entryDy=0;" parent="1" source="cFJ6EwEZcU4XQTctLiup-1" target="Volj_1E85MB9AknWKt4E-11" edge="1">
          <mxGeometry relative="1" as="geometry" />
        </mxCell>
        <mxCell id="cFJ6EwEZcU4XQTctLiup-1" value="Think" style="whiteSpace=wrap;html=1;rounded=1;" parent="1" vertex="1">
          <mxGeometry x="-472" y="320" width="120" height="60" as="geometry" />
        </mxCell>
        <mxCell id="k_e-ELGLgppn5nw8v2pl-14" style="edgeStyle=orthogonalEdgeStyle;rounded=0;orthogonalLoop=1;jettySize=auto;html=1;entryX=0;entryY=0.5;entryDx=0;entryDy=0;" parent="1" source="cFJ6EwEZcU4XQTctLiup-5" target="cFJ6EwEZcU4XQTctLiup-1" edge="1">
          <mxGeometry relative="1" as="geometry">
            <Array as="points">
              <mxPoint x="-302" y="890" />
              <mxPoint x="-647" y="890" />
              <mxPoint x="-647" y="350" />
            </Array>
          </mxGeometry>
        </mxCell>
        <mxCell id="cFJ6EwEZcU4XQTctLiup-5" value="Task &lt;br&gt;Done" style="whiteSpace=wrap;html=1;rounded=1;" parent="1" vertex="1">
          <mxGeometry x="-352" y="800" width="100" height="40" as="geometry" />
        </mxCell>
        <mxCell id="cFJ6EwEZcU4XQTctLiup-26" style="edgeStyle=orthogonalEdgeStyle;rounded=0;orthogonalLoop=1;jettySize=auto;html=1;entryX=0;entryY=0.5;entryDx=0;entryDy=0;" parent="1" source="cFJ6EwEZcU4XQTctLiup-11" target="ABTgJKOR7nkzbQ6pQ3x9-3" edge="1">
          <mxGeometry relative="1" as="geometry">
            <Array as="points">
              <mxPoint x="-1419.9399999999998" y="1865" />
              <mxPoint x="-1419.9399999999998" y="1520" />
            </Array>
          </mxGeometry>
        </mxCell>
        <mxCell id="cFJ6EwEZcU4XQTctLiup-40" style="edgeStyle=orthogonalEdgeStyle;rounded=0;orthogonalLoop=1;jettySize=auto;html=1;" parent="1" source="cFJ6EwEZcU4XQTctLiup-11" target="cFJ6EwEZcU4XQTctLiup-39" edge="1">
          <mxGeometry relative="1" as="geometry" />
        </mxCell>
        <mxCell id="cFJ6EwEZcU4XQTctLiup-11" value="set the last&lt;br&gt;&amp;nbsp;competed task" style="shape=parallelogram;perimeter=parallelogramPerimeter;whiteSpace=wrap;html=1;fixedSize=1;" parent="1" vertex="1">
          <mxGeometry x="-1379.9399999999998" y="1835" width="120" height="60" as="geometry" />
        </mxCell>
        <mxCell id="cFJ6EwEZcU4XQTctLiup-13" value="YES" style="text;strokeColor=none;fillColor=none;align=left;verticalAlign=middle;spacingLeft=4;spacingRight=4;overflow=hidden;points=[[0,0.5],[1,0.5]];portConstraint=eastwest;rotatable=0;whiteSpace=wrap;html=1;" parent="1" vertex="1">
          <mxGeometry x="-1309.9399999999998" y="1785" width="40" height="30" as="geometry" />
        </mxCell>
        <mxCell id="cFJ6EwEZcU4XQTctLiup-19" value="" style="edgeStyle=orthogonalEdgeStyle;rounded=0;orthogonalLoop=1;jettySize=auto;html=1;entryX=0.5;entryY=0;entryDx=0;entryDy=0;" parent="1" source="ABTgJKOR7nkzbQ6pQ3x9-3" target="ABTgJKOR7nkzbQ6pQ3x9-6" edge="1">
          <mxGeometry relative="1" as="geometry">
            <mxPoint x="-1329.9399999999998" y="1560" as="sourcePoint" />
            <mxPoint x="-1329.9399999999998" y="1620.0000000000002" as="targetPoint" />
          </mxGeometry>
        </mxCell>
        <mxCell id="cFJ6EwEZcU4XQTctLiup-28" value="" style="edgeStyle=orthogonalEdgeStyle;rounded=0;orthogonalLoop=1;jettySize=auto;html=1;" parent="1" source="cFJ6EwEZcU4XQTctLiup-29" target="cFJ6EwEZcU4XQTctLiup-32" edge="1">
          <mxGeometry relative="1" as="geometry" />
        </mxCell>
        <mxCell id="cFJ6EwEZcU4XQTctLiup-30" value="NO" style="text;strokeColor=none;fillColor=none;align=left;verticalAlign=middle;spacingLeft=4;spacingRight=4;overflow=hidden;points=[[0,0.5],[1,0.5]];portConstraint=eastwest;rotatable=0;whiteSpace=wrap;html=1;" parent="1" vertex="1">
          <mxGeometry x="-1259.9399999999998" y="1350" width="30" height="30" as="geometry" />
        </mxCell>
        <mxCell id="cFJ6EwEZcU4XQTctLiup-31" value="YES" style="text;strokeColor=none;fillColor=none;align=left;verticalAlign=middle;spacingLeft=4;spacingRight=4;overflow=hidden;points=[[0,0.5],[1,0.5]];portConstraint=eastwest;rotatable=0;whiteSpace=wrap;html=1;" parent="1" vertex="1">
          <mxGeometry x="-1309.9399999999998" y="1440" width="40" height="30" as="geometry" />
        </mxCell>
        <mxCell id="cFJ6EwEZcU4XQTctLiup-32" value="Warning&lt;br&gt;End check" style="whiteSpace=wrap;html=1;" parent="1" vertex="1">
          <mxGeometry x="-1209.9399999999998" y="1350" width="120" height="60" as="geometry" />
        </mxCell>
        <mxCell id="cFJ6EwEZcU4XQTctLiup-33" value="" style="edgeStyle=orthogonalEdgeStyle;rounded=0;orthogonalLoop=1;jettySize=auto;html=1;entryX=0.5;entryY=0;entryDx=0;entryDy=0;" parent="1" source="Volj_1E85MB9AknWKt4E-1" target="cFJ6EwEZcU4XQTctLiup-29" edge="1">
          <mxGeometry relative="1" as="geometry">
            <mxPoint x="-1319.9399999999998" y="1430" as="targetPoint" />
            <mxPoint x="-1319.9399999999998" y="1290" as="sourcePoint" />
          </mxGeometry>
        </mxCell>
        <mxCell id="cFJ6EwEZcU4XQTctLiup-35" style="edgeStyle=orthogonalEdgeStyle;rounded=0;orthogonalLoop=1;jettySize=auto;html=1;entryX=0.5;entryY=0;entryDx=0;entryDy=0;" parent="1" source="cFJ6EwEZcU4XQTctLiup-29" target="ABTgJKOR7nkzbQ6pQ3x9-3" edge="1">
          <mxGeometry relative="1" as="geometry" />
        </mxCell>
        <mxCell id="cFJ6EwEZcU4XQTctLiup-29" value="max task reachable" style="rhombus;whiteSpace=wrap;html=1;" parent="1" vertex="1">
          <mxGeometry x="-1367.4399999999998" y="1330" width="95" height="100" as="geometry" />
        </mxCell>
        <mxCell id="cFJ6EwEZcU4XQTctLiup-36" value="UI Handler" style="rounded=1;whiteSpace=wrap;html=1;" parent="1" vertex="1">
          <mxGeometry x="-1229.9399999999998" y="1740" width="120" height="60" as="geometry" />
        </mxCell>
        <mxCell id="cFJ6EwEZcU4XQTctLiup-41" style="edgeStyle=orthogonalEdgeStyle;rounded=0;orthogonalLoop=1;jettySize=auto;html=1;entryX=0.5;entryY=1;entryDx=0;entryDy=0;" parent="1" source="cFJ6EwEZcU4XQTctLiup-39" target="cFJ6EwEZcU4XQTctLiup-36" edge="1">
          <mxGeometry relative="1" as="geometry" />
        </mxCell>
        <mxCell id="cFJ6EwEZcU4XQTctLiup-39" value="UI shows&lt;br&gt;&amp;nbsp;completed task&lt;br&gt;for some time" style="shape=parallelogram;perimeter=parallelogramPerimeter;whiteSpace=wrap;html=1;fixedSize=1;" parent="1" vertex="1">
          <mxGeometry x="-1379.9399999999998" y="1930" width="120" height="60" as="geometry" />
        </mxCell>
        <mxCell id="cFJ6EwEZcU4XQTctLiup-42" value="Get Task Conditions" style="swimlane;whiteSpace=wrap;html=1;" parent="1" vertex="1">
          <mxGeometry x="-1240" y="1440" width="215" height="150" as="geometry" />
        </mxCell>
        <mxCell id="cFJ6EwEZcU4XQTctLiup-43" value="Grab random Interacable &lt;br&gt;obj and compare&lt;br&gt;&amp;nbsp;if task type exisits in the task list or is&lt;br&gt;&amp;nbsp;the last completed task&lt;br&gt;&amp;nbsp;then add it to the list we need to&lt;br&gt;&amp;nbsp;do until we have max list of tasks&lt;br&gt;&amp;nbsp;in the list&amp;nbsp;" style="text;html=1;align=center;verticalAlign=middle;resizable=0;points=[];autosize=1;strokeColor=none;fillColor=none;" parent="cFJ6EwEZcU4XQTctLiup-42" vertex="1">
          <mxGeometry x="-5" y="30" width="220" height="110" as="geometry" />
        </mxCell>
        <mxCell id="k_e-ELGLgppn5nw8v2pl-18" style="edgeStyle=orthogonalEdgeStyle;rounded=0;orthogonalLoop=1;jettySize=auto;html=1;entryX=0.5;entryY=0;entryDx=0;entryDy=0;" parent="1" source="k_e-ELGLgppn5nw8v2pl-17" target="XSct5k5VQUa2GznqLbLM-4" edge="1">
          <mxGeometry relative="1" as="geometry" />
        </mxCell>
        <mxCell id="k_e-ELGLgppn5nw8v2pl-17" value="AI" style="rounded=1;whiteSpace=wrap;html=1;" parent="1" vertex="1">
          <mxGeometry x="160" y="290" width="120" height="60" as="geometry" />
        </mxCell>
        <mxCell id="k_e-ELGLgppn5nw8v2pl-20" style="edgeStyle=orthogonalEdgeStyle;rounded=0;orthogonalLoop=1;jettySize=auto;html=1;entryX=0.5;entryY=0;entryDx=0;entryDy=0;" parent="1" source="k_e-ELGLgppn5nw8v2pl-19" target="k_e-ELGLgppn5nw8v2pl-17" edge="1">
          <mxGeometry relative="1" as="geometry" />
        </mxCell>
        <mxCell id="k_e-ELGLgppn5nw8v2pl-19" value="AI&amp;nbsp;Behavior&amp;nbsp;" style="rounded=1;whiteSpace=wrap;html=1;" parent="1" vertex="1">
          <mxGeometry x="160" y="190" width="120" height="60" as="geometry" />
        </mxCell>
        <mxCell id="T1XJ8mTRFxujSmtySTRM-4" style="edgeStyle=orthogonalEdgeStyle;rounded=0;orthogonalLoop=1;jettySize=auto;html=1;entryX=0.5;entryY=0;entryDx=0;entryDy=0;" parent="1" source="k_e-ELGLgppn5nw8v2pl-7" target="cFJ6EwEZcU4XQTctLiup-5" edge="1">
          <mxGeometry relative="1" as="geometry" />
        </mxCell>
        <mxCell id="T1XJ8mTRFxujSmtySTRM-6" style="edgeStyle=orthogonalEdgeStyle;rounded=0;orthogonalLoop=1;jettySize=auto;html=1;" parent="1" source="xqMqaPBEPbHjZp_7vXyr-17" target="xqMqaPBEPbHjZp_7vXyr-23" edge="1">
          <mxGeometry relative="1" as="geometry" />
        </mxCell>
        <mxCell id="7_Q7pxpkYJc1u3Sq8Xlw-3" value="" style="edgeStyle=orthogonalEdgeStyle;rounded=0;orthogonalLoop=1;jettySize=auto;html=1;" parent="1" source="7_Q7pxpkYJc1u3Sq8Xlw-1" target="7_Q7pxpkYJc1u3Sq8Xlw-2" edge="1">
          <mxGeometry relative="1" as="geometry" />
        </mxCell>
        <mxCell id="7_Q7pxpkYJc1u3Sq8Xlw-1" value="Start" style="rounded=1;whiteSpace=wrap;html=1;" parent="1" vertex="1">
          <mxGeometry x="-456.9999999999998" y="1120" width="120" height="60" as="geometry" />
        </mxCell>
        <mxCell id="7_Q7pxpkYJc1u3Sq8Xlw-10" style="edgeStyle=orthogonalEdgeStyle;rounded=0;orthogonalLoop=1;jettySize=auto;html=1;entryX=0.5;entryY=0;entryDx=0;entryDy=0;" parent="1" source="7_Q7pxpkYJc1u3Sq8Xlw-2" target="7_Q7pxpkYJc1u3Sq8Xlw-4" edge="1">
          <mxGeometry relative="1" as="geometry">
            <Array as="points">
              <mxPoint x="-397" y="1390" />
              <mxPoint x="-550" y="1390" />
            </Array>
          </mxGeometry>
        </mxCell>
        <mxCell id="7_Q7pxpkYJc1u3Sq8Xlw-11" style="edgeStyle=orthogonalEdgeStyle;rounded=0;orthogonalLoop=1;jettySize=auto;html=1;entryX=0.5;entryY=0;entryDx=0;entryDy=0;" parent="1" source="7_Q7pxpkYJc1u3Sq8Xlw-2" target="7_Q7pxpkYJc1u3Sq8Xlw-8" edge="1">
          <mxGeometry relative="1" as="geometry" />
        </mxCell>
        <mxCell id="7_Q7pxpkYJc1u3Sq8Xlw-13" style="edgeStyle=orthogonalEdgeStyle;rounded=0;orthogonalLoop=1;jettySize=auto;html=1;entryX=0.5;entryY=0;entryDx=0;entryDy=0;" parent="1" source="7_Q7pxpkYJc1u3Sq8Xlw-2" target="7_Q7pxpkYJc1u3Sq8Xlw-9" edge="1">
          <mxGeometry relative="1" as="geometry">
            <Array as="points">
              <mxPoint x="-397" y="1390" />
              <mxPoint x="-240" y="1390" />
            </Array>
          </mxGeometry>
        </mxCell>
        <mxCell id="7_Q7pxpkYJc1u3Sq8Xlw-2" value="player Gets a list of tasks to do&amp;nbsp;" style="rounded=1;whiteSpace=wrap;html=1;" parent="1" vertex="1">
          <mxGeometry x="-456.9999999999998" y="1260" width="120" height="60" as="geometry" />
        </mxCell>
        <mxCell id="7_Q7pxpkYJc1u3Sq8Xlw-4" value="player does task" style="rounded=1;whiteSpace=wrap;html=1;" parent="1" vertex="1">
          <mxGeometry x="-610" y="1470" width="120" height="60" as="geometry" />
        </mxCell>
        <mxCell id="7_Q7pxpkYJc1u3Sq8Xlw-8" value="player kills player" style="rounded=1;whiteSpace=wrap;html=1;" parent="1" vertex="1">
          <mxGeometry x="-457" y="1470" width="120" height="60" as="geometry" />
        </mxCell>
        <mxCell id="7_Q7pxpkYJc1u3Sq8Xlw-15" style="edgeStyle=orthogonalEdgeStyle;rounded=0;orthogonalLoop=1;jettySize=auto;html=1;entryX=0.5;entryY=0;entryDx=0;entryDy=0;" parent="1" source="7_Q7pxpkYJc1u3Sq8Xlw-9" target="7_Q7pxpkYJc1u3Sq8Xlw-14" edge="1">
          <mxGeometry relative="1" as="geometry" />
        </mxCell>
        <mxCell id="7_Q7pxpkYJc1u3Sq8Xlw-9" value="player kills AI" style="rounded=1;whiteSpace=wrap;html=1;" parent="1" vertex="1">
          <mxGeometry x="-300" y="1470" width="120" height="60" as="geometry" />
        </mxCell>
        <mxCell id="7_Q7pxpkYJc1u3Sq8Xlw-14" value="loses all tasks ans ability to kill" style="rounded=1;whiteSpace=wrap;html=1;" parent="1" vertex="1">
          <mxGeometry x="-300" y="1570" width="120" height="60" as="geometry" />
        </mxCell>
        <mxCell id="7_Q7pxpkYJc1u3Sq8Xlw-17" value="Gain points&amp;nbsp;" style="rounded=1;whiteSpace=wrap;html=1;" parent="1" vertex="1">
          <mxGeometry x="-460" y="1590" width="120" height="60" as="geometry" />
        </mxCell>
        <mxCell id="7_Q7pxpkYJc1u3Sq8Xlw-18" value="Gain Double points&amp;nbsp;" style="rounded=1;whiteSpace=wrap;html=1;" parent="1" vertex="1">
          <mxGeometry x="-610" y="1590" width="120" height="60" as="geometry" />
        </mxCell>
        <mxCell id="znZZMsB74qmJo8x0Kip--1" value="AI&amp;nbsp;Behavior&amp;nbsp;" style="rounded=1;whiteSpace=wrap;html=1;" parent="1" vertex="1">
          <mxGeometry x="-472" y="220" width="120" height="60" as="geometry" />
        </mxCell>
        <mxCell id="znZZMsB74qmJo8x0Kip--11" value="" style="edgeStyle=orthogonalEdgeStyle;rounded=0;orthogonalLoop=1;jettySize=auto;html=1;" parent="1" source="znZZMsB74qmJo8x0Kip--4" target="znZZMsB74qmJo8x0Kip--10" edge="1">
          <mxGeometry relative="1" as="geometry" />
        </mxCell>
        <mxCell id="znZZMsB74qmJo8x0Kip--15" style="edgeStyle=orthogonalEdgeStyle;rounded=0;orthogonalLoop=1;jettySize=auto;html=1;entryX=0;entryY=0.5;entryDx=0;entryDy=0;" parent="1" source="znZZMsB74qmJo8x0Kip--4" target="znZZMsB74qmJo8x0Kip--7" edge="1">
          <mxGeometry relative="1" as="geometry" />
        </mxCell>
        <mxCell id="znZZMsB74qmJo8x0Kip--4" value="Double points" style="whiteSpace=wrap;html=1;" parent="1" vertex="1">
          <mxGeometry x="-2380" y="1525" width="120" height="60" as="geometry" />
        </mxCell>
        <mxCell id="znZZMsB74qmJo8x0Kip--6" value="UI Handler" style="rounded=1;whiteSpace=wrap;html=1;" parent="1" vertex="1">
          <mxGeometry x="-2020.0599999999997" y="1525" width="120" height="60" as="geometry" />
        </mxCell>
        <mxCell id="znZZMsB74qmJo8x0Kip--14" style="edgeStyle=orthogonalEdgeStyle;rounded=0;orthogonalLoop=1;jettySize=auto;html=1;entryX=0.5;entryY=0;entryDx=0;entryDy=0;" parent="1" source="znZZMsB74qmJo8x0Kip--7" target="znZZMsB74qmJo8x0Kip--10" edge="1">
          <mxGeometry relative="1" as="geometry" />
        </mxCell>
        <mxCell id="znZZMsB74qmJo8x0Kip--16" style="edgeStyle=orthogonalEdgeStyle;rounded=0;orthogonalLoop=1;jettySize=auto;html=1;entryX=0;entryY=0.5;entryDx=0;entryDy=0;" parent="1" source="znZZMsB74qmJo8x0Kip--7" target="znZZMsB74qmJo8x0Kip--6" edge="1">
          <mxGeometry relative="1" as="geometry" />
        </mxCell>
        <mxCell id="znZZMsB74qmJo8x0Kip--7" value="Points per completed tasks" style="whiteSpace=wrap;html=1;" parent="1" vertex="1">
          <mxGeometry x="-2180" y="1525" width="120" height="60" as="geometry" />
        </mxCell>
        <mxCell id="znZZMsB74qmJo8x0Kip--13" value="" style="edgeStyle=orthogonalEdgeStyle;rounded=0;orthogonalLoop=1;jettySize=auto;html=1;" parent="1" source="znZZMsB74qmJo8x0Kip--10" target="znZZMsB74qmJo8x0Kip--12" edge="1">
          <mxGeometry relative="1" as="geometry" />
        </mxCell>
        <mxCell id="znZZMsB74qmJo8x0Kip--10" value="max points reached" style="rhombus;whiteSpace=wrap;html=1;" parent="1" vertex="1">
          <mxGeometry x="-2260" y="1645" width="80" height="80" as="geometry" />
        </mxCell>
        <mxCell id="znZZMsB74qmJo8x0Kip--12" value="Player wins" style="whiteSpace=wrap;html=1;" parent="1" vertex="1">
          <mxGeometry x="-2280" y="1755" width="120" height="60" as="geometry" />
        </mxCell>
        <mxCell id="znZZMsB74qmJo8x0Kip--24" value="" style="edgeStyle=orthogonalEdgeStyle;rounded=0;orthogonalLoop=1;jettySize=auto;html=1;" parent="1" source="znZZMsB74qmJo8x0Kip--17" target="znZZMsB74qmJo8x0Kip--23" edge="1">
          <mxGeometry relative="1" as="geometry" />
        </mxCell>
        <mxCell id="znZZMsB74qmJo8x0Kip--17" value="UI Handler" style="rounded=1;whiteSpace=wrap;html=1;" parent="1" vertex="1">
          <mxGeometry x="360.0000000000002" y="1210" width="120" height="60" as="geometry" />
        </mxCell>
        <mxCell id="znZZMsB74qmJo8x0Kip--23" value="Update Player screens" style="rounded=0;whiteSpace=wrap;html=1;" parent="1" vertex="1">
          <mxGeometry x="360" y="1320" width="120" height="60" as="geometry" />
        </mxCell>
        <mxCell id="K6UCgkKI-4Dbr8YtvkdL-34" style="edgeStyle=orthogonalEdgeStyle;rounded=0;orthogonalLoop=1;jettySize=auto;html=1;entryX=0.5;entryY=0;entryDx=0;entryDy=0;" parent="1" source="K6UCgkKI-4Dbr8YtvkdL-17" target="K6UCgkKI-4Dbr8YtvkdL-35" edge="1">
          <mxGeometry relative="1" as="geometry">
            <mxPoint x="-2440" y="260" as="targetPoint" />
          </mxGeometry>
        </mxCell>
        <mxCell id="K6UCgkKI-4Dbr8YtvkdL-17" value="Player 1" style="rounded=1;whiteSpace=wrap;html=1;" parent="1" vertex="1">
          <mxGeometry x="-2500" y="145" width="120" height="60" as="geometry" />
        </mxCell>
        <mxCell id="K6UCgkKI-4Dbr8YtvkdL-39" style="edgeStyle=orthogonalEdgeStyle;rounded=0;orthogonalLoop=1;jettySize=auto;html=1;entryX=0.5;entryY=0;entryDx=0;entryDy=0;" parent="1" source="K6UCgkKI-4Dbr8YtvkdL-31" target="K6UCgkKI-4Dbr8YtvkdL-36" edge="1">
          <mxGeometry relative="1" as="geometry" />
        </mxCell>
        <mxCell id="K6UCgkKI-4Dbr8YtvkdL-31" value="Player 2" style="rounded=1;whiteSpace=wrap;html=1;" parent="1" vertex="1">
          <mxGeometry x="-2360" y="145" width="120" height="60" as="geometry" />
        </mxCell>
        <mxCell id="K6UCgkKI-4Dbr8YtvkdL-40" style="edgeStyle=orthogonalEdgeStyle;rounded=0;orthogonalLoop=1;jettySize=auto;html=1;entryX=0.5;entryY=0;entryDx=0;entryDy=0;" parent="1" source="K6UCgkKI-4Dbr8YtvkdL-32" target="K6UCgkKI-4Dbr8YtvkdL-37" edge="1">
          <mxGeometry relative="1" as="geometry" />
        </mxCell>
        <mxCell id="K6UCgkKI-4Dbr8YtvkdL-32" value="Player 3" style="rounded=1;whiteSpace=wrap;html=1;" parent="1" vertex="1">
          <mxGeometry x="-2220" y="145" width="120" height="60" as="geometry" />
        </mxCell>
        <mxCell id="K6UCgkKI-4Dbr8YtvkdL-41" style="edgeStyle=orthogonalEdgeStyle;rounded=0;orthogonalLoop=1;jettySize=auto;html=1;entryX=0.5;entryY=0;entryDx=0;entryDy=0;" parent="1" source="K6UCgkKI-4Dbr8YtvkdL-33" target="K6UCgkKI-4Dbr8YtvkdL-38" edge="1">
          <mxGeometry relative="1" as="geometry" />
        </mxCell>
        <mxCell id="K6UCgkKI-4Dbr8YtvkdL-33" value="Player 4" style="rounded=1;whiteSpace=wrap;html=1;" parent="1" vertex="1">
          <mxGeometry x="-2080" y="145" width="120" height="60" as="geometry" />
        </mxCell>
        <mxCell id="K6UCgkKI-4Dbr8YtvkdL-35" value="First Place" style="rounded=1;whiteSpace=wrap;html=1;" parent="1" vertex="1">
          <mxGeometry x="-2500" y="260" width="120" height="60" as="geometry" />
        </mxCell>
        <mxCell id="K6UCgkKI-4Dbr8YtvkdL-36" value="Second Place" style="rounded=1;whiteSpace=wrap;html=1;" parent="1" vertex="1">
          <mxGeometry x="-2360" y="260" width="120" height="60" as="geometry" />
        </mxCell>
        <mxCell id="K6UCgkKI-4Dbr8YtvkdL-37" value="Third Place" style="rounded=1;whiteSpace=wrap;html=1;" parent="1" vertex="1">
          <mxGeometry x="-2220" y="260" width="120" height="60" as="geometry" />
        </mxCell>
        <mxCell id="K6UCgkKI-4Dbr8YtvkdL-38" value="Fourth Place" style="rounded=1;whiteSpace=wrap;html=1;" parent="1" vertex="1">
          <mxGeometry x="-2080" y="260" width="120" height="60" as="geometry" />
        </mxCell>
        <mxCell id="K6UCgkKI-4Dbr8YtvkdL-42" value="Debuff" style="ellipse;whiteSpace=wrap;html=1;" parent="1" vertex="1">
          <mxGeometry x="-2520" y="290" width="40" height="40" as="geometry" />
        </mxCell>
        <mxCell id="K6UCgkKI-4Dbr8YtvkdL-43" value="Buff" style="ellipse;whiteSpace=wrap;html=1;" parent="1" vertex="1">
          <mxGeometry x="-1980" y="300" width="40" height="40" as="geometry" />
        </mxCell>
        <mxCell id="K6UCgkKI-4Dbr8YtvkdL-44" value="First Place" style="rounded=1;whiteSpace=wrap;html=1;" parent="1" vertex="1">
          <mxGeometry x="-2500" y="360" width="120" height="60" as="geometry" />
        </mxCell>
        <mxCell id="K6UCgkKI-4Dbr8YtvkdL-45" value="First Place" style="rounded=1;whiteSpace=wrap;html=1;" parent="1" vertex="1">
          <mxGeometry x="-2360" y="360" width="120" height="60" as="geometry" />
        </mxCell>
        <mxCell id="K6UCgkKI-4Dbr8YtvkdL-46" value="Fourth" style="rounded=1;whiteSpace=wrap;html=1;" parent="1" vertex="1">
          <mxGeometry x="-2220" y="360" width="120" height="60" as="geometry" />
        </mxCell>
        <mxCell id="K6UCgkKI-4Dbr8YtvkdL-47" value="Fourth" style="rounded=1;whiteSpace=wrap;html=1;" parent="1" vertex="1">
          <mxGeometry x="-2080" y="360" width="120" height="60" as="geometry" />
        </mxCell>
        <mxCell id="K6UCgkKI-4Dbr8YtvkdL-50" value="Debuff&lt;br&gt;1.5x" style="ellipse;whiteSpace=wrap;html=1;" parent="1" vertex="1">
          <mxGeometry x="-2520" y="390" width="40" height="40" as="geometry" />
        </mxCell>
        <mxCell id="K6UCgkKI-4Dbr8YtvkdL-51" value="Debuff&lt;br&gt;1.5x" style="ellipse;whiteSpace=wrap;html=1;" parent="1" vertex="1">
          <mxGeometry x="-2370" y="390" width="40" height="40" as="geometry" />
        </mxCell>
        <mxCell id="K6UCgkKI-4Dbr8YtvkdL-52" value="Buff" style="ellipse;whiteSpace=wrap;html=1;" parent="1" vertex="1">
          <mxGeometry x="-2230" y="390" width="40" height="40" as="geometry" />
        </mxCell>
        <mxCell id="K6UCgkKI-4Dbr8YtvkdL-53" value="Buff" style="ellipse;whiteSpace=wrap;html=1;" parent="1" vertex="1">
          <mxGeometry x="-2090" y="390" width="40" height="40" as="geometry" />
        </mxCell>
        <mxCell id="K6UCgkKI-4Dbr8YtvkdL-54" value="Tie" style="rounded=1;whiteSpace=wrap;html=1;" parent="1" vertex="1">
          <mxGeometry x="-2500" y="460" width="120" height="60" as="geometry" />
        </mxCell>
        <mxCell id="K6UCgkKI-4Dbr8YtvkdL-55" value="Tie" style="rounded=1;whiteSpace=wrap;html=1;" parent="1" vertex="1">
          <mxGeometry x="-2360" y="460" width="120" height="60" as="geometry" />
        </mxCell>
        <mxCell id="K6UCgkKI-4Dbr8YtvkdL-56" value="Tie" style="rounded=1;whiteSpace=wrap;html=1;" parent="1" vertex="1">
          <mxGeometry x="-2220" y="460" width="120" height="60" as="geometry" />
        </mxCell>
        <mxCell id="K6UCgkKI-4Dbr8YtvkdL-57" value="Tie" style="rounded=1;whiteSpace=wrap;html=1;" parent="1" vertex="1">
          <mxGeometry x="-2080" y="460" width="120" height="60" as="geometry" />
        </mxCell>
        <mxCell id="K6UCgkKI-4Dbr8YtvkdL-62" value="First Place" style="rounded=1;whiteSpace=wrap;html=1;" parent="1" vertex="1">
          <mxGeometry x="-2500" y="550" width="120" height="60" as="geometry" />
        </mxCell>
        <mxCell id="K6UCgkKI-4Dbr8YtvkdL-63" value="Fourth" style="rounded=1;whiteSpace=wrap;html=1;" parent="1" vertex="1">
          <mxGeometry x="-2360" y="550" width="120" height="60" as="geometry" />
        </mxCell>
        <mxCell id="K6UCgkKI-4Dbr8YtvkdL-64" value="Fourth" style="rounded=1;whiteSpace=wrap;html=1;" parent="1" vertex="1">
          <mxGeometry x="-2220" y="550" width="120" height="60" as="geometry" />
        </mxCell>
        <mxCell id="K6UCgkKI-4Dbr8YtvkdL-65" value="Fourth" style="rounded=1;whiteSpace=wrap;html=1;" parent="1" vertex="1">
          <mxGeometry x="-2080" y="550" width="120" height="60" as="geometry" />
        </mxCell>
        <mxCell id="K6UCgkKI-4Dbr8YtvkdL-66" value="Debuff&lt;br&gt;1.5x" style="ellipse;whiteSpace=wrap;html=1;" parent="1" vertex="1">
          <mxGeometry x="-2520" y="590" width="40" height="40" as="geometry" />
        </mxCell>
        <mxCell id="K6UCgkKI-4Dbr8YtvkdL-68" value="Buff&lt;br&gt;0.5x" style="ellipse;whiteSpace=wrap;html=1;" parent="1" vertex="1">
          <mxGeometry x="-2370" y="590" width="40" height="40" as="geometry" />
        </mxCell>
        <mxCell id="K6UCgkKI-4Dbr8YtvkdL-69" value="Buff&lt;br&gt;0.5x" style="ellipse;whiteSpace=wrap;html=1;" parent="1" vertex="1">
          <mxGeometry x="-2230" y="590" width="40" height="40" as="geometry" />
        </mxCell>
        <mxCell id="K6UCgkKI-4Dbr8YtvkdL-70" value="Buff&lt;br&gt;0.5x" style="ellipse;whiteSpace=wrap;html=1;" parent="1" vertex="1">
          <mxGeometry x="-2090" y="590" width="40" height="40" as="geometry" />
        </mxCell>
        <mxCell id="K6UCgkKI-4Dbr8YtvkdL-71" value="First Place" style="rounded=1;whiteSpace=wrap;html=1;" parent="1" vertex="1">
          <mxGeometry x="-2500" y="650" width="120" height="60" as="geometry" />
        </mxCell>
        <mxCell id="K6UCgkKI-4Dbr8YtvkdL-72" value="First" style="rounded=1;whiteSpace=wrap;html=1;" parent="1" vertex="1">
          <mxGeometry x="-2360" y="650" width="120" height="60" as="geometry" />
        </mxCell>
        <mxCell id="K6UCgkKI-4Dbr8YtvkdL-73" value="First" style="rounded=1;whiteSpace=wrap;html=1;" parent="1" vertex="1">
          <mxGeometry x="-2220" y="650" width="120" height="60" as="geometry" />
        </mxCell>
        <mxCell id="K6UCgkKI-4Dbr8YtvkdL-74" value="Fourth" style="rounded=1;whiteSpace=wrap;html=1;" parent="1" vertex="1">
          <mxGeometry x="-2080" y="650" width="120" height="60" as="geometry" />
        </mxCell>
        <mxCell id="K6UCgkKI-4Dbr8YtvkdL-75" value="Debuff" style="ellipse;whiteSpace=wrap;html=1;" parent="1" vertex="1">
          <mxGeometry x="-2520" y="690" width="40" height="40" as="geometry" />
        </mxCell>
        <mxCell id="K6UCgkKI-4Dbr8YtvkdL-78" value="Buff" style="ellipse;whiteSpace=wrap;html=1;" parent="1" vertex="1">
          <mxGeometry x="-2090" y="690" width="40" height="40" as="geometry" />
        </mxCell>
        <mxCell id="K6UCgkKI-4Dbr8YtvkdL-79" value="Debuff" style="ellipse;whiteSpace=wrap;html=1;" parent="1" vertex="1">
          <mxGeometry x="-2370" y="690" width="40" height="40" as="geometry" />
        </mxCell>
        <mxCell id="K6UCgkKI-4Dbr8YtvkdL-80" value="Debuff" style="ellipse;whiteSpace=wrap;html=1;" parent="1" vertex="1">
          <mxGeometry x="-2230" y="690" width="40" height="40" as="geometry" />
        </mxCell>
        <mxCell id="4RN-km2yg8YJWLc3fOZi-1" value="Think" style="whiteSpace=wrap;html=1;rounded=1;" vertex="1" parent="1">
          <mxGeometry x="-1440" y="340" width="120" height="60" as="geometry" />
        </mxCell>
        <mxCell id="4RN-km2yg8YJWLc3fOZi-2" value="Death" style="whiteSpace=wrap;html=1;rounded=1;" vertex="1" parent="1">
          <mxGeometry x="-1040" y="340" width="120" height="60" as="geometry" />
        </mxCell>
        <mxCell id="4RN-km2yg8YJWLc3fOZi-3" value="Roam" style="swimlane;whiteSpace=wrap;html=1;" vertex="1" parent="1">
          <mxGeometry x="-1533" y="520" width="213" height="320" as="geometry">
            <mxRectangle x="-1533" y="520" width="70" height="30" as="alternateBounds" />
          </mxGeometry>
        </mxCell>
        <mxCell id="4RN-km2yg8YJWLc3fOZi-4" style="edgeStyle=orthogonalEdgeStyle;rounded=0;orthogonalLoop=1;jettySize=auto;html=1;entryX=0.5;entryY=0;entryDx=0;entryDy=0;" edge="1" parent="4RN-km2yg8YJWLc3fOZi-3" source="4RN-km2yg8YJWLc3fOZi-11" target="4RN-km2yg8YJWLc3fOZi-5">
          <mxGeometry relative="1" as="geometry">
            <mxPoint x="113" y="60.00000000000006" as="sourcePoint" />
          </mxGeometry>
        </mxCell>
        <mxCell id="4RN-km2yg8YJWLc3fOZi-5" value="Select Move Action" style="whiteSpace=wrap;html=1;rounded=1;" vertex="1" parent="4RN-km2yg8YJWLc3fOZi-3">
          <mxGeometry x="63" y="100.00000000000006" width="100" height="40" as="geometry" />
        </mxCell>
        <mxCell id="4RN-km2yg8YJWLc3fOZi-6" value="" style="edgeStyle=orthogonalEdgeStyle;rounded=0;orthogonalLoop=1;jettySize=auto;html=1;" edge="1" parent="4RN-km2yg8YJWLc3fOZi-3" source="4RN-km2yg8YJWLc3fOZi-5" target="4RN-km2yg8YJWLc3fOZi-7">
          <mxGeometry relative="1" as="geometry">
            <mxPoint x="113" y="140.00000000000006" as="sourcePoint" />
            <mxPoint x="113" y="220.00000000000006" as="targetPoint" />
          </mxGeometry>
        </mxCell>
        <mxCell id="4RN-km2yg8YJWLc3fOZi-49" style="edgeStyle=orthogonalEdgeStyle;rounded=0;orthogonalLoop=1;jettySize=auto;html=1;entryX=0.5;entryY=0;entryDx=0;entryDy=0;" edge="1" parent="4RN-km2yg8YJWLc3fOZi-3" source="4RN-km2yg8YJWLc3fOZi-7" target="4RN-km2yg8YJWLc3fOZi-47">
          <mxGeometry relative="1" as="geometry" />
        </mxCell>
        <mxCell id="4RN-km2yg8YJWLc3fOZi-7" value="Execute Move" style="whiteSpace=wrap;html=1;rounded=1;" vertex="1" parent="4RN-km2yg8YJWLc3fOZi-3">
          <mxGeometry x="63" y="170.00000000000006" width="100" height="40" as="geometry" />
        </mxCell>
        <mxCell id="4RN-km2yg8YJWLc3fOZi-9" style="edgeStyle=orthogonalEdgeStyle;rounded=0;orthogonalLoop=1;jettySize=auto;html=1;entryX=0;entryY=0.5;entryDx=0;entryDy=0;exitX=0;exitY=0.5;exitDx=0;exitDy=0;" edge="1" parent="4RN-km2yg8YJWLc3fOZi-3" source="4RN-km2yg8YJWLc3fOZi-47" target="4RN-km2yg8YJWLc3fOZi-5">
          <mxGeometry relative="1" as="geometry">
            <Array as="points">
              <mxPoint x="20" y="270" />
              <mxPoint x="20" y="120" />
            </Array>
            <mxPoint x="73" y="270" as="sourcePoint" />
          </mxGeometry>
        </mxCell>
        <mxCell id="4RN-km2yg8YJWLc3fOZi-11" value="Start Roam Timer" style="whiteSpace=wrap;html=1;rounded=1;" vertex="1" parent="4RN-km2yg8YJWLc3fOZi-3">
          <mxGeometry x="63" y="40.00000000000006" width="100" height="40" as="geometry" />
        </mxCell>
        <mxCell id="4RN-km2yg8YJWLc3fOZi-12" value="" style="edgeStyle=orthogonalEdgeStyle;rounded=0;orthogonalLoop=1;jettySize=auto;html=1;" edge="1" parent="4RN-km2yg8YJWLc3fOZi-3" source="4RN-km2yg8YJWLc3fOZi-11" target="4RN-km2yg8YJWLc3fOZi-5">
          <mxGeometry relative="1" as="geometry" />
        </mxCell>
        <mxCell id="4RN-km2yg8YJWLc3fOZi-47" value="Roam&amp;nbsp;&lt;div&gt;Timer&amp;nbsp;&lt;div&gt;up?&lt;/div&gt;&lt;/div&gt;" style="rhombus;whiteSpace=wrap;html=1;" vertex="1" parent="4RN-km2yg8YJWLc3fOZi-3">
          <mxGeometry x="73" y="230" width="80" height="80" as="geometry" />
        </mxCell>
        <mxCell id="4RN-km2yg8YJWLc3fOZi-50" value="No" style="text;html=1;align=center;verticalAlign=middle;whiteSpace=wrap;rounded=0;" vertex="1" parent="4RN-km2yg8YJWLc3fOZi-3">
          <mxGeometry x="53" y="240" width="27" height="30" as="geometry" />
        </mxCell>
        <mxCell id="4RN-km2yg8YJWLc3fOZi-54" value="Yes" style="text;html=1;align=center;verticalAlign=middle;whiteSpace=wrap;rounded=0;" vertex="1" parent="4RN-km2yg8YJWLc3fOZi-3">
          <mxGeometry x="126" y="290" width="27" height="30" as="geometry" />
        </mxCell>
        <mxCell id="4RN-km2yg8YJWLc3fOZi-16" style="edgeStyle=orthogonalEdgeStyle;rounded=0;orthogonalLoop=1;jettySize=auto;html=1;entryX=0.5;entryY=0;entryDx=0;entryDy=0;" edge="1" parent="1" source="4RN-km2yg8YJWLc3fOZi-17" target="4RN-km2yg8YJWLc3fOZi-28">
          <mxGeometry relative="1" as="geometry" />
        </mxCell>
        <mxCell id="4RN-km2yg8YJWLc3fOZi-17" value="Do Task&amp;nbsp;" style="swimlane;whiteSpace=wrap;html=1;" vertex="1" parent="1">
          <mxGeometry x="-1279.94" y="520" width="200" height="320" as="geometry" />
        </mxCell>
        <mxCell id="4RN-km2yg8YJWLc3fOZi-18" style="edgeStyle=orthogonalEdgeStyle;rounded=0;orthogonalLoop=1;jettySize=auto;html=1;entryX=0.5;entryY=0;entryDx=0;entryDy=0;" edge="1" parent="4RN-km2yg8YJWLc3fOZi-17" source="4RN-km2yg8YJWLc3fOZi-19" target="4RN-km2yg8YJWLc3fOZi-24">
          <mxGeometry relative="1" as="geometry" />
        </mxCell>
        <mxCell id="4RN-km2yg8YJWLc3fOZi-19" value="Path Find" style="whiteSpace=wrap;html=1;rounded=1;" vertex="1" parent="4RN-km2yg8YJWLc3fOZi-17">
          <mxGeometry x="50" y="100" width="100" height="40" as="geometry" />
        </mxCell>
        <mxCell id="4RN-km2yg8YJWLc3fOZi-20" style="edgeStyle=orthogonalEdgeStyle;rounded=0;orthogonalLoop=1;jettySize=auto;html=1;" edge="1" parent="4RN-km2yg8YJWLc3fOZi-17" source="4RN-km2yg8YJWLc3fOZi-21" target="4RN-km2yg8YJWLc3fOZi-19">
          <mxGeometry relative="1" as="geometry" />
        </mxCell>
        <mxCell id="4RN-km2yg8YJWLc3fOZi-21" value="Get task" style="whiteSpace=wrap;html=1;rounded=1;" vertex="1" parent="4RN-km2yg8YJWLc3fOZi-17">
          <mxGeometry x="50" y="40" width="100" height="40" as="geometry" />
        </mxCell>
        <mxCell id="4RN-km2yg8YJWLc3fOZi-22" style="edgeStyle=orthogonalEdgeStyle;rounded=0;orthogonalLoop=1;jettySize=auto;html=1;entryX=0;entryY=0.5;entryDx=0;entryDy=0;" edge="1" parent="4RN-km2yg8YJWLc3fOZi-17" source="4RN-km2yg8YJWLc3fOZi-25" target="4RN-km2yg8YJWLc3fOZi-19">
          <mxGeometry relative="1" as="geometry">
            <Array as="points">
              <mxPoint x="100" y="210" />
              <mxPoint x="30" y="210" />
              <mxPoint x="30" y="120" />
            </Array>
          </mxGeometry>
        </mxCell>
        <mxCell id="4RN-km2yg8YJWLc3fOZi-23" style="edgeStyle=orthogonalEdgeStyle;rounded=0;orthogonalLoop=1;jettySize=auto;html=1;entryX=0.5;entryY=0;entryDx=0;entryDy=0;" edge="1" parent="4RN-km2yg8YJWLc3fOZi-17" source="4RN-km2yg8YJWLc3fOZi-24" target="4RN-km2yg8YJWLc3fOZi-25">
          <mxGeometry relative="1" as="geometry" />
        </mxCell>
        <mxCell id="4RN-km2yg8YJWLc3fOZi-24" value="Move&lt;br&gt;&amp;nbsp;(Check Goal)" style="whiteSpace=wrap;html=1;rounded=1;" vertex="1" parent="4RN-km2yg8YJWLc3fOZi-17">
          <mxGeometry x="50" y="190" width="100" height="40" as="geometry" />
        </mxCell>
        <mxCell id="4RN-km2yg8YJWLc3fOZi-25" value="Interact" style="whiteSpace=wrap;html=1;rounded=1;" vertex="1" parent="4RN-km2yg8YJWLc3fOZi-17">
          <mxGeometry x="50" y="260" width="100" height="40" as="geometry" />
        </mxCell>
        <mxCell id="4RN-km2yg8YJWLc3fOZi-26" value="Not Reached" style="text;strokeColor=none;fillColor=none;align=left;verticalAlign=middle;spacingLeft=4;spacingRight=4;overflow=hidden;points=[[0,0.5],[1,0.5]];portConstraint=eastwest;rotatable=0;whiteSpace=wrap;html=1;" vertex="1" parent="4RN-km2yg8YJWLc3fOZi-17">
          <mxGeometry x="32" y="150" width="58" height="30" as="geometry" />
        </mxCell>
        <mxCell id="4RN-km2yg8YJWLc3fOZi-27" value="Reached" style="text;strokeColor=none;fillColor=none;align=left;verticalAlign=middle;spacingLeft=4;spacingRight=4;overflow=hidden;points=[[0,0.5],[1,0.5]];portConstraint=eastwest;rotatable=0;whiteSpace=wrap;html=1;" vertex="1" parent="4RN-km2yg8YJWLc3fOZi-17">
          <mxGeometry x="102" y="230" width="58" height="30" as="geometry" />
        </mxCell>
        <mxCell id="4RN-km2yg8YJWLc3fOZi-28" value="Task &lt;br&gt;Done" style="whiteSpace=wrap;html=1;rounded=1;" vertex="1" parent="1">
          <mxGeometry x="-1229.94" y="880" width="100" height="40" as="geometry" />
        </mxCell>
        <mxCell id="4RN-km2yg8YJWLc3fOZi-29" style="edgeStyle=orthogonalEdgeStyle;rounded=0;orthogonalLoop=1;jettySize=auto;html=1;entryX=0.5;entryY=0;entryDx=0;entryDy=0;" edge="1" parent="1" source="4RN-km2yg8YJWLc3fOZi-25" target="4RN-km2yg8YJWLc3fOZi-28">
          <mxGeometry relative="1" as="geometry" />
        </mxCell>
        <mxCell id="4RN-km2yg8YJWLc3fOZi-31" value="Do Task&amp;nbsp;" style="swimlane;whiteSpace=wrap;html=1;" vertex="1" parent="1">
          <mxGeometry x="-1060" y="520" width="200" height="320" as="geometry" />
        </mxCell>
        <mxCell id="4RN-km2yg8YJWLc3fOZi-32" style="edgeStyle=orthogonalEdgeStyle;rounded=0;orthogonalLoop=1;jettySize=auto;html=1;entryX=0.5;entryY=0;entryDx=0;entryDy=0;" edge="1" parent="4RN-km2yg8YJWLc3fOZi-31" source="4RN-km2yg8YJWLc3fOZi-33" target="4RN-km2yg8YJWLc3fOZi-38">
          <mxGeometry relative="1" as="geometry" />
        </mxCell>
        <mxCell id="4RN-km2yg8YJWLc3fOZi-33" value="Path Find" style="whiteSpace=wrap;html=1;rounded=1;" vertex="1" parent="4RN-km2yg8YJWLc3fOZi-31">
          <mxGeometry x="50" y="100" width="100" height="40" as="geometry" />
        </mxCell>
        <mxCell id="4RN-km2yg8YJWLc3fOZi-34" style="edgeStyle=orthogonalEdgeStyle;rounded=0;orthogonalLoop=1;jettySize=auto;html=1;" edge="1" parent="4RN-km2yg8YJWLc3fOZi-31" source="4RN-km2yg8YJWLc3fOZi-35" target="4RN-km2yg8YJWLc3fOZi-33">
          <mxGeometry relative="1" as="geometry" />
        </mxCell>
        <mxCell id="4RN-km2yg8YJWLc3fOZi-35" value="Get task" style="whiteSpace=wrap;html=1;rounded=1;" vertex="1" parent="4RN-km2yg8YJWLc3fOZi-31">
          <mxGeometry x="50" y="40" width="100" height="40" as="geometry" />
        </mxCell>
        <mxCell id="4RN-km2yg8YJWLc3fOZi-36" style="edgeStyle=orthogonalEdgeStyle;rounded=0;orthogonalLoop=1;jettySize=auto;html=1;entryX=0;entryY=0.5;entryDx=0;entryDy=0;" edge="1" parent="4RN-km2yg8YJWLc3fOZi-31" source="4RN-km2yg8YJWLc3fOZi-39" target="4RN-km2yg8YJWLc3fOZi-33">
          <mxGeometry relative="1" as="geometry">
            <Array as="points">
              <mxPoint x="100" y="210" />
              <mxPoint x="30" y="210" />
              <mxPoint x="30" y="120" />
            </Array>
          </mxGeometry>
        </mxCell>
        <mxCell id="4RN-km2yg8YJWLc3fOZi-37" style="edgeStyle=orthogonalEdgeStyle;rounded=0;orthogonalLoop=1;jettySize=auto;html=1;entryX=0.5;entryY=0;entryDx=0;entryDy=0;" edge="1" parent="4RN-km2yg8YJWLc3fOZi-31" source="4RN-km2yg8YJWLc3fOZi-38" target="4RN-km2yg8YJWLc3fOZi-39">
          <mxGeometry relative="1" as="geometry" />
        </mxCell>
        <mxCell id="4RN-km2yg8YJWLc3fOZi-38" value="Move&lt;br&gt;&amp;nbsp;(Check Goal)" style="whiteSpace=wrap;html=1;rounded=1;" vertex="1" parent="4RN-km2yg8YJWLc3fOZi-31">
          <mxGeometry x="50" y="190" width="100" height="40" as="geometry" />
        </mxCell>
        <mxCell id="4RN-km2yg8YJWLc3fOZi-39" value="Interact" style="whiteSpace=wrap;html=1;rounded=1;" vertex="1" parent="4RN-km2yg8YJWLc3fOZi-31">
          <mxGeometry x="50" y="260" width="100" height="40" as="geometry" />
        </mxCell>
        <mxCell id="4RN-km2yg8YJWLc3fOZi-40" value="Not Reached" style="text;strokeColor=none;fillColor=none;align=left;verticalAlign=middle;spacingLeft=4;spacingRight=4;overflow=hidden;points=[[0,0.5],[1,0.5]];portConstraint=eastwest;rotatable=0;whiteSpace=wrap;html=1;" vertex="1" parent="4RN-km2yg8YJWLc3fOZi-31">
          <mxGeometry x="30" y="145" width="60" height="30" as="geometry" />
        </mxCell>
        <mxCell id="4RN-km2yg8YJWLc3fOZi-41" value="Reached" style="text;strokeColor=none;fillColor=none;align=left;verticalAlign=middle;spacingLeft=4;spacingRight=4;overflow=hidden;points=[[0,0.5],[1,0.5]];portConstraint=eastwest;rotatable=0;whiteSpace=wrap;html=1;" vertex="1" parent="4RN-km2yg8YJWLc3fOZi-31">
          <mxGeometry x="102" y="230" width="58" height="30" as="geometry" />
        </mxCell>
        <mxCell id="4RN-km2yg8YJWLc3fOZi-52" value="Timer&lt;br&gt;Done" style="whiteSpace=wrap;html=1;rounded=1;" vertex="1" parent="1">
          <mxGeometry x="-1470" y="880" width="100" height="40" as="geometry" />
        </mxCell>
        <mxCell id="4RN-km2yg8YJWLc3fOZi-53" style="edgeStyle=orthogonalEdgeStyle;rounded=0;orthogonalLoop=1;jettySize=auto;html=1;entryX=0.5;entryY=0;entryDx=0;entryDy=0;" edge="1" parent="1" source="4RN-km2yg8YJWLc3fOZi-47" target="4RN-km2yg8YJWLc3fOZi-52">
          <mxGeometry relative="1" as="geometry" />
        </mxCell>
      </root>
    </mxGraphModel>
  </diagram>
</mxfile>
